<?xml version="1.0" standalone="no"?>
<!DOCTYPE svg PUBLIC "-//W3C//DTD SVG 1.1//EN" "http://www.w3.org/Graphics/SVG/1.1/DTD/svg11.dtd" >
<!--
2013-9-30: Created.
-->
<svg>
<metadata>
Created by iconfont
</metadata>
<defs>

<font id="iconfont" horiz-adv-x="1024" >
  <font-face
    font-family="iconfont"
    font-weight="500"
    font-stretch="normal"
    units-per-em="1024"
    ascent="896"
    descent="-128"
  />
    <missing-glyph />
    
    <glyph glyph-name="x" unicode="x" horiz-adv-x="1001"
d="M281 543q-27 -1 -53 -1h-83q-18 0 -36.5 -6t-32.5 -18.5t-23 -32t-9 -45.5v-76h912v41q0 16 -0.5 30t-0.5 18q0 13 -5 29t-17 29.5t-31.5 22.5t-49.5 9h-133v-97h-438v97zM955 310v-52q0 -23 0.5 -52t0.5 -58t-10.5 -47.5t-26 -30t-33 -16t-31.5 -4.5q-14 -1 -29.5 -0.5
t-29.5 0.5h-32l-45 128h-439l-44 -128h-29h-34q-20 0 -45 1q-25 0 -41 9.5t-25.5 23t-13.5 29.5t-4 30v167h911zM163 247q-12 0 -21 -8.5t-9 -21.5t9 -21.5t21 -8.5q13 0 22 8.5t9 21.5t-9 21.5t-22 8.5zM316 123q-8 -26 -14 -48q-5 -19 -10.5 -37t-7.5 -25t-3 -15t1 -14.5
t9.5 -10.5t21.5 -4h37h67h81h80h64h36q23 0 34 12t2 38q-5 13 -9.5 30.5t-9.5 34.5q-5 19 -11 39h-368zM336 498v228q0 11 2.5 23t10 21.5t20.5 15.5t34 6h188q31 0 51.5 -14.5t20.5 -52.5v-227h-327z" />
    

    
    <glyph glyph-name="set2" unicode="&#58906;" d="M511.994 198.661c-101.688 0-184.408 82.862-184.408 184.711 0 101.848 82.72 184.702 184.408 184.702s184.418-82.853 184.418-184.702c0-101.85-82.73-184.711-184.418-184.711zM511.994 507.177c-68.157 0-123.61-55.543-123.61-123.806 0-68.273 55.453-123.816 123.61-123.816 68.166 0 123.62 55.543 123.62 123.816-0 68.263-55.454 123.806-123.62 123.806zM581.629 769.954v-40.661c0-29.855 17.801-56.518 45.331-67.944 8.955-3.721 18.402-5.599 28.096-5.599 19.616 0 38.055 7.65 51.915 21.539l26.026 26.062 98.47-98.629-26.017-26.062c-21.075-21.11-27.321-52.57-15.913-80.145 11.399-27.584 38.027-45.402 67.828-45.402h39.34v-139.491h-39.34c-29.801 0-56.429-17.818-67.828-45.393-11.408-27.584-5.162-59.044 15.913-80.154l26.017-26.063-98.47-98.629-26.026 26.063c-13.861 13.887-32.3 21.539-51.915 21.539-9.694 0-19.141-1.879-28.096-5.6-27.53-11.416-45.331-38.090-45.331-67.943v-39.393l-139.259-0v39.393c0 29.855-17.792 56.527-45.322 67.943-8.955 3.721-18.412 5.6-28.106 5.6-19.605 0-38.054-7.651-51.914-21.539l-26.027-26.063-98.47 98.629 26.018 26.063c21.075 21.11 27.32 52.569 15.913 80.144-11.399 27.584-38.027 45.402-67.829 45.402h-39.331l-0 139.491h39.331c29.802 0 56.43 17.818 67.829 45.402 11.407 27.575 5.162 59.035-15.913 80.145l-26.018 26.062 98.47 98.629 26.027-26.062c13.861-13.888 32.309-21.539 51.914-21.539 9.694 0 19.142 1.878 28.096 5.599 27.54 11.426 45.332 38.090 45.332 67.944v40.661l139.259 0M581.629 830.849h-139.259c-33.441 0-60.798-31.205-60.798-64.698v-36.858c0-5.125-3.082-9.73-7.797-11.69-1.559-0.647-3.2-0.958-4.833-0.958-3.283 0-6.511 1.277-8.928 3.702l-26.027 26.062c-11.819 11.846-27.402 17.764-42.988 17.764s-31.16-5.918-42.988-17.764l-98.478-98.629c-23.637-23.681-23.637-62.445 0-86.118l26.027-26.062c3.61-3.619 4.687-9.063 2.735-13.788-1.952-4.723-6.557-7.806-11.663-7.806h-36.805c-33.431 0-63.324-27.401-63.324-60.895v-139.491c0-33.493 29.893-60.895 63.324-60.895h36.805c5.107 0 9.712-3.082 11.663-7.806s0.875-10.169-2.735-13.788l-26.027-26.063c-23.637-23.681-23.637-62.436 0-86.117l98.478-98.629c11.828-11.836 27.402-17.764 42.988-17.764s31.169 5.928 42.988 17.764l26.027 26.062c2.416 2.416 5.645 3.702 8.928 3.702 1.633 0 3.274-0.31 4.833-0.958 4.715-1.961 7.797-6.575 7.797-11.69v-36.859c0-33.485 27.357-63.43 60.798-63.43h139.259c33.44 0 60.797 29.946 60.797 63.43v36.859c0 5.116 3.073 9.73 7.797 11.69 1.559 0.648 3.201 0.958 4.833 0.958 3.283 0 6.511-1.286 8.928-3.702l26.018-26.062c11.828-11.836 27.412-17.764 42.997-17.764 15.576 0 31.17 5.928 42.989 17.764l98.478 98.629c23.637 23.682 23.637 62.437 0 86.117l-26.027 26.063c-3.611 3.619-4.687 9.063-2.736 13.788 1.952 4.724 6.557 7.806 11.663 7.806h36.806c33.431 0 63.324 27.401 63.324 60.895l0 139.492c0 33.493-29.893 60.895-63.324 60.895h-36.806c-5.107 0-9.712 3.083-11.663 7.806-1.951 4.724-0.875 10.169 2.736 13.788l26.027 26.062c23.637 23.672 23.637 62.437 0 86.118l-98.478 98.629c-11.819 11.846-27.412 17.764-42.989 17.764-15.585 0-31.169-5.918-42.997-17.764l-26.018-26.062c-2.416-2.426-5.645-3.702-8.928-3.702-1.632 0-3.274 0.31-4.833 0.958-4.724 1.961-7.797 6.566-7.797 11.69v36.858c-0 33.493-27.357 64.696-60.797 64.696v0z"  horiz-adv-x="1024" />

    
    <glyph glyph-name="yonghu" unicode="&#59099;" d="M149.990594-146.716134c-0.533143 7.267521-0.808412 14.59644-0.808412 21.982664 0 181.139523 162.758897 328.506872 362.817306 328.506872 200.057385 0 362.818329-147.368372 362.818329-328.506872 0-7.387247-0.276293-14.716166-0.808412-21.982664l61.743226 0c0.436952 7.29515 0.663102 14.623046 0.663102 21.982664 0 53.088102-11.375072 104.572684-33.81413 153.023162-21.564132 46.563502-52.374858 88.326675-91.572602 124.129088-62.09115 56.70856-139.940193 93.641727-224.406956 107.349937 100.768031 31.966039 174.040848 126.878712 174.040848 238.695381 0 137.967258-111.549585 250.212692-248.663406 250.212692-137.112798 0-248.663406-112.245434-248.663406-250.212692 0-111.816668 73.27384-206.729342 174.040848-238.695381-84.466764-13.70821-162.316829-50.641377-224.406956-107.349937-39.198767-35.801391-70.00847-77.565587-91.572602-124.129088-22.437012-48.450479-33.81413-99.93506-33.81413-153.023162 0-7.359618 0.227174-14.688537 0.663102-21.982664L149.990594-146.716134zM326.770833 498.465121c0 102.771665 83.093487 186.381921 185.228655 186.381921s185.228655-83.610256 185.228655-186.381921c0-102.772688-83.092463-186.382944-185.228655-186.382944S326.770833 395.692433 326.770833 498.465121z"  horiz-adv-x="1024" />

    
    <glyph glyph-name="kuaidi" unicode="&#58890;" d="M1007.417806 291.692387c-0.148645 4.938323-1.651613 9.794065-4.409806 13.906581l-149.107613 223.744c-4.921806 7.300129-13.212903 11.726452-22.032516 11.726452l-106.908903 0-94.604387 0-0.049548 0c-14.600258 0-26.442323-11.858581-26.442323-26.491871l0-431.384774c0-14.583742 11.842065-26.458839 26.491871-26.458839l54.205935 0 0.016516 0c0-66.873806 54.222452-121.063226 121.079742-121.063226 66.890323 0 121.063226 54.189419 121.096258 121.063226l54.222452 0c14.600258 0 26.491871 11.875097 26.491871 26.491871L1007.467355 290.932645C1007.483871 291.180387 1007.434323 291.444645 1007.417806 291.692387zM724.975484 298.926452 724.975484 460.371613l102.119226 0 107.652129-161.461677L724.975484 298.909935zM805.67329-3.781161c-33.379097 0-60.548129 27.152516-60.548129 60.531613 0 33.379097 27.185548 60.548129 60.548129 60.548129s60.531613-27.185548 60.531613-60.548129C866.204903 23.371355 839.052387-3.781161 805.67329-3.781161zM528.350968 621.800258 73.992258 621.800258c-19.422968 0-35.146323-15.739871-35.146323-35.146323l0-494.740645c0-19.406452 15.723355-35.162839 35.129806-35.162839l85.933419 0c0-66.873806 54.205935-121.063226 121.079742-121.063226s121.079742 54.189419 121.079742 121.063226l126.282323 0c19.422968 0 35.146323 15.756387 35.146323 35.162839L563.49729 586.653935C563.49729 606.060387 547.790452 621.800258 528.350968 621.800258zM280.988903-3.781161c-33.379097 0-60.531613 27.152516-60.531613 60.531613 0 33.379097 27.169032 60.548129 60.531613 60.548129s60.548129-27.185548 60.548129-60.548129C341.537032 23.371355 314.368-3.781161 280.988903-3.781161z"  horiz-adv-x="1024" />

    
    <glyph glyph-name="mima" unicode="&#59190;" d="M760.384 370.624l0 103.616c0 0-0.032 241.728-241.728 241.728-241.696 0-241.728-241.728-241.728-241.728l0-103.616L173.312 370.624l0-483.488L864-112.864 864 370.624 760.384 370.624zM553.184 103.936l0-113.184-69.056 0 0 113.184c-20.544 11.968-34.528 34.016-34.528 59.488 0 38.176 30.944 69.088 69.056 69.088 38.112 0 69.056-30.912 69.056-69.088C587.744 137.952 573.76 115.904 553.184 103.936M691.328 370.656 345.984 370.656l0 103.136c0.384 28.928 10.56 173.12 172.672 173.12s172.288-144.192 172.672-172.672L691.328 370.656z"  horiz-adv-x="1024" />

    
    <glyph glyph-name="jia" unicode="&#58929;" d="M583.357188 371.357188 583.357188 751.930903 440.642812 751.930903 440.642812 371.357188 60.069097 371.357188 60.069097 228.642812 440.642812 228.642812 440.642812-151.930903 583.357188-151.930903 583.357188 228.642812 963.930903 228.642812 963.930903 371.357188Z"  horiz-adv-x="1024" />

    
    <glyph glyph-name="guanbi" unicode="&#58880;" d="M578.304 299.850667 987.818667 709.344c18.304 18.304 18.304 48 0 66.325333s-48 18.304-66.282667 0L512 366.176 102.485333 775.669333c-18.304 18.304-47.978667 18.304-66.282667 0s-18.304-48 0-66.325333l409.493333-409.493333L37.226667-108.576c-18.304-18.304-18.304-48 0-66.304 18.304-18.325333 48-18.325333 66.325333 0L512 233.546667l408.448-408.448c18.304-18.325333 47.978667-18.325333 66.325333 0 18.261333 18.304 18.261333 48 0 66.304L578.304 299.850667z"  horiz-adv-x="1024" />

    
    <glyph glyph-name="gou1" unicode="&#58887;" d="M435.661 81.81c0 0 243.478 469.351 523.576 654.057-34.504-88.516-21.999-254.231 0-342.578-136.586-31.18-417.399-381.577-508.456-552.864-128.939 163.557-279.561 269.22-386.989 327.028l147.697 141.184 224.173-226.827z"  horiz-adv-x="1024" />

    
    <glyph glyph-name="loading" unicode="&#58955;" d="M384 684A64 64 13680 1 0 640 684 64 64 13680 1 0 384 684zM655.53 571.53A64 64 13680 1 0 911.53 571.53 64 64 13680 1 0 655.53 571.53zM832 300A32 32 13680 1 0 960 300 32 32 13680 1 0 832 300zM719.53 28.47A32 32 13680 1 0 847.53 28.47 32 32 13680 1 0 719.53 28.47zM448.002-84A32 32 13680 1 0 576.002-84 32 32 13680 1 0 448.002-84zM176.472 28.47A32 32 13680 1 0 304.472 28.47 32 32 13680 1 0 176.472 28.47zM144.472 571.53A48 48 13680 1 0 336.472 571.53 48 48 13680 1 0 144.472 571.53zM56 300A36 36 13680 1 0 200 300 36 36 13680 1 0 56 300z"  horiz-adv-x="1024" />

    
    <glyph glyph-name="right" unicode="&#58982;" d="M800.068 650.749l-412.966-412.966-163.174 163.173c-24.418 24.416-64.005 24.416-88.423 0-24.414-24.415-24.414-64.004 0-88.42l195.48-195.481c13.024-13.021 36.739-18.951 56.342-18.022 19.476-0.924 42.872 5.006 55.89 18.025l445.271 445.271c24.418 24.418 24.418 64.005 0 88.421-24.416 24.418-64.002 24.418-88.42 0z"  horiz-adv-x="1024" />

    
    <glyph glyph-name="topjian" unicode="&#58889;" d="M410.521 487.275l-204.604 0.207 306.698 306.689 307.212-306.995-204.393-0.111-0.054-511.525-204.653-0.572-0.204 512.307zM410.521 487.275z"  horiz-adv-x="1024" />

    
    <glyph glyph-name="set1" unicode="&#59016;" d="M926.857 293.034l-18.354 9.583c-28.682 16.72-48.035 47.845-48.035 83.547 0 35.635 19.291 66.757 47.975 83.545l18.414 9.643c19.164 10.019 29.493 32.442 25.988 53.294-3.569 10.773-7.578 21.543-11.96 32.189v0c-4.447 10.651-9.207 21.11-14.28 31.254-12.275 17.22-35.445 25.803-56.114 19.29l-19.792-6.203c-32.188-8.453-67.823-0.123-93.060 25.115-25.239 25.236-33.566 60.87-25.114 92.999l6.202 19.79c6.511 20.607-2.068 43.777-19.289 56.113-10.149 5.076-20.54 9.895-31.253 14.282v0c-10.645 4.444-21.415 8.392-32.191 11.96-20.855 3.507-43.337-6.824-53.293-25.988l-9.586-18.353c-16.779-28.745-47.909-48.035-83.545-48.035-35.634 0-66.758 19.29-83.543 48.035l-9.58 18.353c-10.020 19.163-32.438 29.495-53.294 25.988-10.838-3.509-21.545-7.517-32.253-11.898v0c-10.65-4.449-21.109-9.207-31.254-14.282-17.22-12.337-25.802-35.505-19.288-56.175l6.201-19.79c8.453-32.191 0.062-67.824-25.113-92.999-25.175-25.238-60.811-33.568-93.001-25.175l-19.852 6.264c-20.608 6.513-43.777-2.070-56.052-19.29-5.136-10.144-9.895-20.602-14.282-31.254v0c-4.443-10.645-8.39-21.415-11.959-32.189-3.507-20.919 6.822-43.338 25.988-53.356l18.353-9.58c28.745-16.786 48.033-47.909 48.033-83.545s-19.288-66.702-47.972-83.482l-18.413-9.648c-19.166-10.020-29.495-32.438-25.988-53.294 3.569-10.775 7.578-21.544 11.959-32.19v0c4.449-10.645 9.207-21.104 14.282-31.252 12.275-17.219 35.443-25.804 56.113-19.291l19.723 6.203c32.194 8.453 67.892 0.123 93.068-25.116 25.175-25.174 33.565-60.809 25.175-92.936l-6.263-19.915c-6.452-20.609 2.068-43.776 19.288-56.113 10.144-5.077 20.541-9.894 31.254-14.281v0c10.645-4.445 21.415-8.393 32.189-11.96 20.851-3.507 43.337 6.824 53.297 25.988l9.579 18.353c16.784 28.683 47.91 48.035 83.605 48.035 35.635 0 66.704-19.291 83.482-47.91l9.649-18.478c10.018-19.163 32.438-29.494 53.293-25.988 10.776 3.567 21.546 7.58 32.191 11.96v0c10.644 4.448 21.104 9.205 31.253 14.281 17.22 12.275 25.801 35.442 19.289 56.113l-6.202 19.728c-8.453 32.188-0.125 67.884 25.114 93.122 25.174 25.177 60.81 33.569 92.936 25.116l19.854-6.266c20.603-6.45 43.777 2.070 56.113 19.29 5.074 10.148 9.896 20.54 14.281 31.254v0c4.445 10.645 8.39 21.416 11.959 32.188 3.566 20.919-6.762 43.337-25.926 53.357v0zM509.568 150.887c-129.964 0-235.27 105.378-235.27 235.278 0 129.893 105.306 235.271 235.27 235.271 129.971 0 235.278-105.378 235.278-235.271 0-129.9-105.306-235.278-235.278-235.278v0zM509.568 180.058z"  horiz-adv-x="1024" />

    
    <glyph glyph-name="zhifu" unicode="&#58945;" d="M933.875 120.231v415.398c0 89.578-72.64 162.247-162.247 162.247h-519.257c-89.578 0-162.247-72.64-162.247-162.247v-519.257c0-89.578 72.64-162.247 162.247-162.247h519.257c79.833 0 146.234 57.694 159.739 133.674-43.010 18.503-229.54 99.030-326.659 145.483-73.909-89.539-151.342-143.264-268.058-143.264-116.716 0-194.602 71.798-185.212 159.831 6.163 57.78 45.78 152.112 217.775 135.887 90.651-8.552 132.162-25.462 206.163-49.822 19.016 35.045 34.979 73.643 46.962 114.726h-327.761v32.452h162.143v58.413h-197.819v35.697h197.819v84.151c0 0 1.864 13.205 16.339 13.205h81.13v-97.356h210.937v-35.697h-210.938v-58.413h171.995c-15.769-64.437-39.718-123.547-69.793-175.278 50.030-18.048 277.485-87.583 277.485-87.583 0 0 0 0 0 0zM323.779 45.593c-123.318 0-142.788 77.885-136.298 110.337s42.188 74.64 110.743 74.64c78.833 0 149.316-20.114 234.033-61.377-59.424-77.44-132.575-123.6-208.477-123.6z"  horiz-adv-x="1025" />

    
    <glyph glyph-name="home" unicode="&#58883;" d="M237.048-43.815h174.958l-0 192.619c0 13.305 28.042 26.077 41.369 26.077h127.032c13.284 0 50.295-12.772 50.295-26.077v-192.619h174.958l-0 393.655h194.649l-488.311 461.975-488.306-461.975h213.356l0-393.655zM237.048-43.815h174.958l-0 192.619c0 13.305 28.042 26.077 41.369 26.077h127.032c13.284 0 50.295-12.772 50.295-26.077v-192.619h174.958l-0 393.655h194.649l-488.311 461.975-488.306-461.975h213.356l0-393.655z"  horiz-adv-x="1024" />

    
    <glyph glyph-name="yonghu2" unicode="&#59151;" d="M505.933 358.067c-135.475 0-245.658 110.208-245.658 245.658s110.208 245.658 245.658 245.658 245.658-110.208 245.658-245.658-110.182-245.658-245.658-245.658zM746.701-71.885v0c-0.205 0-2.534 0.026-2.739 0.026h-500.736c-75.264 4.198-119.45 53.376-122.317 134.938-0.717 19.942 9.037 51.456 14.234 62.080 70.374 143.565 213.35 232.73 373.146 232.73 168.166 0 319.104-95.59 375.578-237.875 21.99-55.424 21.478-100.71-1.562-134.605-37.043-54.528-119.45-57.293-135.603-57.293z"  horiz-adv-x="1024" />

    
    <glyph glyph-name="flush" unicode="&#59046;" d="M817.093 298.812c-7.487-157.805-137.796-283.457-297.455-283.457-164.47 0-297.806 133.336-297.806 297.805 0 159.643 125.608 289.923 283.375 297.453v-141.625l311.987 170.175-311.987 198.537v-141.862c-204.746-7.63-368.38-176.022-368.38-382.622 0-211.471 171.421-382.893 382.892-382.893 206.65 0 375.053 163.692 382.626 368.489l-85.253 0z"  horiz-adv-x="1024" />

    
    <glyph glyph-name="shouji" unicode="&#58917;" d="M745.5115 752.9939 308.859198 752.9939c-30.0089 0-54.5813-24.5713-54.5813-54.579l0-764.108934c0-30.0077 24.5724-54.579 54.5813-54.579l436.65129 0c30.0089 0 54.5813 24.5713 54.5813 54.579L800.091787 698.413875C800.0928 728.4215 775.5204 752.9939 745.5115 752.9939zM636.3489-65.6941 418.02277-65.6941l0 54.578995 218.326145 0L636.348914-65.694059zM745.5115 43.4639 308.859198 43.4639 308.859198 698.413875l436.65129 0L745.510487 43.463931z"  horiz-adv-x="1024" />

    
    <glyph glyph-name="weixin" unicode="&#58930;" d="M340.67 558.458c-18.985 0-38.106-12.576-38.106-31.593 0-18.948 19.127-31.634 38.106-31.634 19.009 0 31.593 12.685 31.593 31.634 0 19.102-12.602 31.593-31.593 31.593zM517.785 495.212c19.127 0 31.643 12.685 31.643 31.634 0 19.013-12.521 31.593-31.643 31.593-18.95 0-37.941-12.521-37.941-31.593 0-18.948 19.013-31.634 37.941-31.634zM600.035 374.873c-12.528 0-25.29-12.685-25.29-25.29 0-12.775 12.73-25.291 25.29-25.291 19.27 0 31.71 12.508 31.71 25.291 0.001 12.602-12.436 25.29-31.71 25.29zM797.681 866.737h-540.634c-121.058 0-219.193-98.633-219.193-220.273v-543.373c0-121.618 98.154-220.273 219.193-220.273h540.634c121.030 0 219.174 98.643 219.174 220.273v543.373c0 121.659-98.154 220.273-219.174 220.273zM422.928 235.508c-31.585 0-56.993 6.481-88.615 12.665l-88.489-44.323 25.291 76.093c-63.357 44.378-101.263 101.375-101.263 170.893 0 120.419 113.941 215.203 253.079 215.203 124.482 0 233.44-75.745 255.321-177.695-8.127 0.858-16.209 1.53-24.436 1.53-120.187 0-215.092-89.725-215.127-200.299 0-18.427 2.921-36.17 7.846-53.108-7.807-0.582-15.633-0.934-23.585-0.934zM796.158 146.858l19.013-63.314-69.415 38.098c-25.29-6.325-50.709-12.639-75.93-12.639-120.401 0-215.203 82.191-215.203 183.635 0 101.104 94.785 183.599 215.203 183.599 113.753 0 215.005-82.446 215.005-183.599-0.001-57.122-37.885-107.636-88.707-145.763zM739.253 374.873c-12.528 0-25.136-12.685-25.136-25.29 0-12.775 12.665-25.291 25.136-25.291 18.999 0 31.689 12.508 31.689 25.291 0.001 12.602-12.639 25.29-31.689 25.29z"  horiz-adv-x="1024" />

    
    <glyph glyph-name="denglu01" unicode="&#59014;" d="M509.559926 775.812687c94.884021 0 195.477067-79.942727 195.477067-139.629107l0-139.667993c0-53.761438-22.344914-156.645666-82.296331-203.822129-15.257495-12.05864-23.217794-31.204699-20.890796-50.510394 2.273786-19.355837 14.465456-36.123732 32.156374-44.215014l243.10583-115.352191c1.905396-0.899486 23.298636-4.495384 23.298636-34.377972l0.054235-54.529941-781.759887-0.052189 0 56.698327c0 22.264073 16.660448 29.194926 23.298636 32.260751l245.354034 115.880217c17.587564 8.039093 29.724998 24.699542 32.077579 43.952025 2.38021 19.199271-5.367241 38.291095-20.468171 50.402947-58.018392 46.595224-85.073584 149.08241-85.073584 203.664539L313.893548 636.18358C313.892525 694.574455 415.521157 775.812687 509.559926 775.812687M509.559926 831.716928c-123.367749 0-251.544013-103.015212-251.544013-195.533348l0-139.667993c0-61.035098 27.847232-184.517457 105.992009-247.244081L118.651842 133.390265c0 0-55.851029-24.857131-55.851029-55.850006l0-83.883479c0-30.833239 25.015743-55.852052 55.851029-55.852052l781.813099 0c30.834262 0 55.824423 25.018813 55.824423 55.852052l0 83.883479c0 32.844036-55.824423 55.850006-55.824423 55.850006L657.330458 248.742457c77.378321 60.98291 103.556541 180.684152 103.556541 247.77313L760.886999 636.18358C760.888022 728.700693 632.895953 831.716928 509.559926 831.716928L509.559926 831.716928z"  horiz-adv-x="1024" />

    
    <glyph glyph-name="xinlang" unicode="&#58925;" d="M727.163 402.408c-34.857 6.767-17.921 25.55-17.921 25.55s34.161 56.263-6.766 97.233c-50.687 50.646-173.878-6.48-173.878-6.48-47.080-14.6-34.571 6.684-27.929 42.854 0 42.65-14.6 114.825-139.964 72.177-125.242-42.854-232.727-192.989-232.727-192.989-74.761-99.775-64.836-176.914-64.836-176.914 18.658-170.23 199.551-216.939 340.212-228.011 148.004-11.606 347.758 51.016 408.371 179.703 60.53 128.892-49.539 179.867-84.562 186.878v0zM414.303 83.848v0c-146.937-6.89-265.699 66.803-265.699 164.858 0 98.176 118.763 176.914 265.699 183.639 147.059 6.808 266.068-53.804 266.068-151.775 0-98.012-119.008-190.078-266.068-196.722zM384.982 367.715c-147.798-17.305-130.697-155.752-130.697-155.752s-1.517-43.8 39.656-66.149c86.448-46.834 175.479-18.455 220.465 39.613 45.029 58.112 18.618 199.47-129.425 182.288v0zM347.745 173.413v0c-27.639-3.239-49.867 12.672-49.867 35.759 0 22.965 19.767 47.038 47.407 49.95 31.659 2.994 52.288-15.254 52.288-38.342 0-22.966-22.352-44.249-49.828-47.367v0zM434.848 247.64v0c-9.351-6.972-20.832-6.028-25.796 2.336-5.125 8.163-3.198 21.286 6.234 28.174 10.949 8.12 22.35 5.783 27.27-2.379 4.923-8.366 1.396-20.954-7.709-28.131zM799.175 462.324c11.894 0 21.981 8.817 23.704 20.3 0.205 0.861 0.328 1.598 0.328 2.583 18.044 162.273-132.953 134.346-132.953 134.346-13.452 0-24.195-10.827-24.195-24.359 0-13.329 10.743-24.155 24.195-24.155 108.43 23.909 84.519-84.56 84.519-84.56 0-13.41 10.95-24.155 24.402-24.155zM781.541 745.574c-52.206 12.261-105.887 1.723-120.978-1.189-1.148-0.082-2.213-1.189-3.28-1.394-0.575-0.124-0.862-0.656-0.862-0.656-14.847-4.183-25.672-17.921-25.672-34.161 0-19.315 15.665-35.226 35.226-35.226 0 0 18.988 2.542 31.907 7.587 12.753 5.167 120.894 3.814 174.617-86.365 29.28-65.861 12.876-109.905 10.826-116.999 0 0-6.971-17.101-6.971-33.956 0-19.438 15.707-31.658 35.103-31.658 16.239 0 29.895 2.213 33.875 29.69h0.204c57.701 192.209-70.577 282.552-163.995 304.327z"  horiz-adv-x="1024" />

    
    <glyph glyph-name="kuaidi1" unicode="&#58884;" d="M922.834 462.943c-0.031 0-0.031 0.031 0 0-9.571 13.894-20.665 28.823-32.132 43.125-0.466 0.565-0.901 1.129-1.367 1.694h0.249l-10.876 12.922c-14.264 16.936-28.248 32.022-40.46 43.658-28.279 26.941-42.076 30.58-51.834 30.58h-150.468c-4.164 0-8.266-0.439-12.275-1.317v67.307c0 32.587-26.259 59.089-58.546 59.089h-442.577c-32.287 0-58.546-26.502-58.546-59.089v-464.497c0-32.587 26.259-59.089 58.546-59.089h67.776c10.814-51.374 56.62-89.324 109.23-89.324 52.642 0 98.447 37.95 109.261 89.324h156.279c12.927 0 25.264 4.234 35.426 12.044 10.131-7.81 22.468-12.044 35.395-12.044h14.668c10.814-51.374 56.62-89.324 109.23-89.324s98.447 37.95 109.261 89.324h32.381c32.287 0 58.546 26.502 58.546 59.089v187.587c0 8.311-2.113 21.453-18.521 49.712-5.159 8.907-11.436 18.756-18.645 29.231v0zM299.583 94.701c-36.048 0-65.352 29.607-65.352 65.989 0 36.382 29.304 65.989 65.352 65.989 36.048 0 65.383-29.607 65.383-65.989 0-36.382-29.335-65.989-65.383-65.989v0zM577.367 535.832v-339.419c0-6.837-5.5-12.389-12.275-12.389h-156.279c-10.535 50.59-53.978 87.662-105.781 89.293h-0.342v-0.031h-0.715c-0.093 0-0.186 0.031-0.218 0h-3.543c0 0 0 0-0.031 0h-0.124c0 0 0 0-0.031 0v0h-1.057c0 0 0 0-0.031 0h-0.124c0 0 0 0-0.031 0v0h-0.124c0 0 0 0-0.031 0h-0.342c-51.865-1.537-95.371-38.64-105.905-89.293h-67.838c-6.774 0-12.275 5.551-12.275 12.389v464.529c0 6.837 5.5 12.389 12.275 12.389h442.546c6.774 0 12.275-5.551 12.275-12.389v-125.079zM759.843 94.701c-36.048 0-65.383 29.607-65.383 65.989 0 36.382 29.335 65.989 65.383 65.989 36.048 0 65.383-29.607 65.383-65.989 0-36.382-29.366-65.989-65.383-65.989v0zM913.697 196.413c0-6.837-5.5-12.389-12.275-12.389h-32.35c-10.193 48.3-51.554 85.278-100.809 89.010v-0.22c-0.062 0-0.093 0.031-0.155 0.031-0.062 0-0.093 0.031-0.155 0.031-0.062 0-0.093 0.031-0.155 0.031-0.062 0-0.093 0.031-0.155 0.031-0.031 0-0.093 0-0.155 0.031-0.249 0.063-0.528 0.094-0.777 0.125h-0.994c-0.218 0-0.466 0-0.653 0.031h-1.461c-0.031 0-0.062 0-0.093 0.031h-0.031v0c-0.031 0-0.062 0-0.093 0.031h-0.311v0h-0.808c-0.062 0-0.155 0.031-0.249 0h-4.475v-0.031l-0.155 0.063v-0.063c0 0 0 0-0.031 0v0.063l-0.124-0.094h-0.031v0.125l-0.124-0.125-0.155 0.125v0l-0.124-0.094h-0.031v0.094l-0.124-0.063v0.063l-0.155-0.031h-3.48l-0.777-0.125v0.063h-0.124v-0.094c0 0 0 0-0.031 0l-0.155 0.094v-0.125c0 0 0 0-0.031 0v0.125l-0.124-0.157v0.157h-0.124v-0.188c0 0 0 0-0.031 0v0.188h-0.124c-0.342-0.031-0.684-0.031-1.057-0.063-48.789-4.171-89.653-40.961-99.752-88.916h-14.668c-6.774 0-12.275 5.551-12.275 12.389v339.262c0 6.837 5.5 12.389 12.275 12.389h148.292c2.393-1.192 10.006-5.74 25.762-21.233 1.181-1.16 2.331-2.321 3.543-3.513h-71.349c-32.287 0-58.546-26.502-58.546-59.089v-71.478c0-32.587 26.259-59.089 58.546-59.089h171.568v-137.405h-0.124zM913.697 380.55h-171.568c-6.774 0-12.275 5.551-12.275 12.389v71.478c0 6.837 5.5 12.389 12.275 12.389h112.493c5.563-6.931 10.97-13.926 16.097-20.826 0.062-0.063 0.124-0.157 0.186-0.251 9.136-12.326 17.558-24.495 24.332-35.253l3.139 1.694-2.921-1.976 6.526 3.889-6.402-4.109 3.108-5.050c13.3-21.986 14.885-30.141 15.041-31.207v-3.168h-0.031z"  horiz-adv-x="1024" />

    
    <glyph glyph-name="information" unicode="&#58998;" d="M956 88.8h-298.4c-16.8 0-29.6 13.6-29.6 29.6 0 16.8 13.6 29.6 29.6 29.6h299.2c16.8 0 29.6-13.6 29.6-29.6s-13.6-29.6-30.4-29.6zM956 268.8h-298.4c-16.8 0-29.6 13.6-29.6 29.6 0 16.8 13.6 29.6 29.6 29.6h299.2c16.8 0 29.6-13.6 29.6-29.6 0-16.8-13.6-29.6-30.4-29.6zM508 331.2v-3.2c-198.4 0-358.4-173.6-358.4-388.8 0-10.4 0.8-20 1.6-29.6h-120c-0.8 9.6-1.6 20-1.6 29.6 0 201.6 110.4 375.2 270.4 456.8-55.2 49.6-91.2 120-91.2 200 0 148.8 120.8 268.8 268.8 268.8 148.8 0 268.8-120.8 268.8-268.8 0.8-136.8-104-249.6-238.4-264.8zM478.4 746.4c-82.4 0-149.6-67.2-149.6-149.6s67.2-148.8 149.6-148.8 149.6 67.2 149.6 149.6-67.2 148.8-149.6 148.8zM657.6-30.4h299.2c16.8 0 29.6-13.6 29.6-29.6 0-16.8-13.6-29.6-29.6-29.6h-299.2c-16.8 0-29.6 13.6-29.6 29.6-0.8 16 12.8 29.6 29.6 29.6z"  horiz-adv-x="1024" />

    
    <glyph glyph-name="xiazai43" unicode="&#58904;" d="M989-88M989-110 35-110c-17.673 0-32 14.327-32 32s14.327 32 32 32l954 0c17.673 0 32-14.327 32-32S1006.673-110 989-110zM19-52 92 160 297-53ZM150 231 352 22 796 465 592 670ZM659 748l202-202 58 60c0 0 22 32 15 57S801 799 787 813s-41 12-71-13S659 748 659 748z"  horiz-adv-x="1024" />

    
    <glyph glyph-name="mima1" unicode="&#58905;" d="M480.651 193.011l0-79.452c0-17.084 14.077-30.946 31.349-30.946s31.324 13.859 31.324 30.946l0 79.452c24.644 11.615 41.777 36.23 41.777 64.975 0 39.902-32.724 72.228-73.101 72.228-40.402 0-73.127-32.318-73.127-72.228 0-28.72 17.135-53.338 41.777-64.975M852.865 493.666l-559.459 0c1.754 4.502 2.82 9.337 2.82 14.452l0 42.891c0 117.578 96.797 213.217 215.773 213.217 118.977 0 215.751-95.638 215.751-213.217 0-22.532 18.506-40.83 41.328-40.83 22.843 0 41.301 18.293 41.301 40.83 0 162.579-133.857 294.845-298.401 294.845-164.545 0-298.429-132.273-298.429-294.845l0-42.891c0-5.119 1.066-9.951 2.798-14.452l-45.238 0c-34.17 0-61.966-26.704-61.966-59.524l0-452.475c0-32.815 27.798-59.549 61.966-59.549l681.731 0c34.144 0 61.966 26.727 61.966 59.549l0 452.475c0.023 32.815-27.798 59.524-61.937 59.524M832.203 3.798l-640.381 0 0 408.233 640.381 0 0-408.233z"  horiz-adv-x="1024" />

    
    <glyph glyph-name="dissolution" unicode="&#58908;" d="M460 713.216c0-29.338-23.789-53.12-53.12-53.12h-225.76c-29.331 0-53.12 23.782-53.12 53.12v1.664c0 29.338 23.789 53.12 53.12 53.12h225.76c29.331 0 53.12-23.782 53.12-53.12v-1.664zM896 713.216c0-29.338-23.789-53.12-53.114-53.12h-225.76c-29.338 0-53.126 23.782-53.126 53.12v1.664c0 29.338 23.789 53.12 53.126 53.12h225.76c29.325 0 53.114-23.782 53.114-53.12v-1.664zM460 53.12c0-29.338-23.789-53.12-53.114-53.12h-225.766c-29.338 0-53.126 23.782-53.126 53.12v1.664c0 29.338 23.789 53.12 53.126 53.12h225.76c29.325 0 53.114-23.782 53.114-53.12v-1.664zM182.778 332c29.338 0 53.12-23.789 53.12-53.114v-225.76c0-29.338-23.782-53.126-53.12-53.126h-1.664c-29.338 0-53.12 23.789-53.12 53.126l-0 225.76c0 29.325 23.782 53.114 53.12 53.114h1.664zM182.784 768c29.338 0 53.12-23.789 53.12-53.114v-225.766c0-29.338-23.782-53.126-53.12-53.126h-1.664c-29.338 0-53.12 23.789-53.12 53.126v225.766c0 29.325 23.782 53.114 53.12 53.114h1.664zM592.794 304.627c25.126 25.126 65.875 25.126 90.989 0.019l193.376-193.37c25.126-25.133 25.126-65.882 0-91.008l-1.434-1.421c-25.126-25.133-65.862-25.133-91.002 0l-193.363 193.37c-25.114 25.114-25.12 65.856 0.006 90.982l1.427 1.427zM842.886 768c29.338 0 53.114-23.789 53.114-53.114v-225.766c0-29.338-23.776-53.126-53.114-53.126h-1.664c-29.338 0-53.126 23.789-53.126 53.126v225.766c0 29.325 23.789 53.114 53.126 53.114h1.664zM877.158 303.213c25.126-25.126 25.126-65.882 0.019-90.995l-193.37-193.376c-25.133-25.126-65.882-25.126-91.008 0l-1.421 1.434c-25.133 25.126-25.133 65.862 0 91.002l193.37 193.363c25.114 25.114 65.856 25.126 90.982 0l1.427-1.427z"  horiz-adv-x="1024" />

    
    <glyph glyph-name="zhanghaoanquan" unicode="&#58938;" d="M823.850667 895.573333 200.064 895.573333c-110.336 0-199.68-89.344-199.68-199.594667l0-623.829333c0-110.250667 89.386667-199.765333 199.68-199.765333l623.786667 0c110.250667 0 199.765333 89.514667 199.765333 199.765333L1023.616 695.978667C1023.573333 806.229333 934.101333 895.573333 823.850667 895.573333zM785.450667 488.405333c0-384.298667-256.170667-433.792-266.965333-435.797333-2.432-0.426667-4.949333-0.64-7.466667-0.64-2.474667 0-4.949333 0.213333-7.424 0.64C492.842667 54.570667 238.506667 104.064 238.506667 488.405333L238.506667 592.426667c0 11.52 4.821333 22.485333 13.354667 30.336C259.669333 630.016 269.994667 634.026667 280.618667 634.026667c0.938667 0 1.877333 0 2.773333-0.085333 0.682667 0 7.424-0.469333 17.92-0.469333 17.493333 0 52.394667 1.152 84.736 9.045333 49.408 11.989333 99.925333 65.493333 101.632 66.645333 7.04 4.650667 15.189333 6.954667 23.338667 6.954667s16.298667-2.304 23.381333-6.997333c14.08-9.301333 62.336-56.405333 104.021333-66.602667 32.384-7.893333 66.645333-9.045333 84.138667-9.045333 10.581333 0 17.28 0.469333 17.92 0.469333C741.461333 634.026667 742.4 634.026667 743.381333 634.026667c10.581333 0 20.864-4.010667 28.714667-11.264 8.490667-7.850667 13.354667-18.816 13.354667-30.336L785.450667 488.405333 785.450667 488.405333zM641.749333 509.994667l-162.816-161.109333L398.122667 428.8c-10.026667 9.941333-26.282667 9.941333-36.309333 0-10.069333-9.941333-10.069333-25.941333 0-35.882667l94.165333-93.354667c1.109333-1.749333 2.517333-3.669333 4.138667-5.162667 5.162667-5.162667 11.989333-7.594667 18.773333-7.509333 6.741333-0.085333 13.568 2.346667 18.730667 7.509333 1.664 1.493333 2.986667 3.413333 4.096 5.162667l176.384 174.464c9.941333 9.898667 9.941333 25.984 0 35.925333C668.032 519.936 651.733333 519.936 641.749333 509.994667z"  horiz-adv-x="1024" />

    
    <glyph glyph-name="sj2" unicode="&#58893;" d="M870.731 223.452l-362.024 362.024-360.927-360.927z"  horiz-adv-x="1024" />

    
    <glyph glyph-name="shijian1" unicode="&#58970;" d="M512.085241 896C229.27695 896 0 666.808291 0 384c0-282.786981 229.27695-512 512.085241-512 282.74436 0 511.936069 229.234329 511.936069 512C1024.02131 666.808291 794.829601 896 512.085241 896L512.085241 896zM768.149172 327.485224l-271.918755 0c-5.711146 0-11.20919 1.150753-16.323649 3.281778-14.981104 6.393074-25.593607 21.288937-25.593607 38.656788L454.313161 641.299925c0 23.206859 18.816948 41.981187 41.917256 41.981187 23.24948 0 42.045118-18.774328 42.045118-41.981187l0-229.852327 229.873637 0c23.185549 0 42.002497-18.774328 42.002497-41.981187S791.334721 327.485224 768.149172 327.485224L768.149172 327.485224zM768.149172 327.485224"  horiz-adv-x="1025" />

    
    <glyph glyph-name="gou" unicode="&#58885;" d="M922.448077 848.59433 132.175644 848.59433c-29.104026 0-52.685005-23.589274-52.685005-52.68183l0-790.242072c0-29.094605 23.580979-52.68183 52.685005-52.68183l790.272404 0c29.104026 0 52.685005 23.58825 52.685005 52.68183L975.133053 795.912467C975.133082 825.005056 951.552102 848.59433 922.448077 848.59433zM790.82199 602.346906 506.045645 138.242765c-9.894707-16.137523-26.959053-26.281574-45.66999-27.14624-0.875008-0.043008-1.731482-0.053248-2.590106-0.053248-17.750016 0-34.540032 8.421786-45.327155 22.87913L266.716262 329.269453c-18.951373 25.406669-14.010675 61.591757 11.010253 80.833024 25.07305 19.258573 60.694733 14.208614 79.645184-11.172454l95.85193-128.465818 241.079296 392.89129c16.600781 27.026534 51.637146 35.292774 78.325043 18.477875C799.277875 664.993792 807.421645 629.400064 790.82199 602.346906z"  horiz-adv-x="1024" />

    
    <glyph glyph-name="duihao" unicode="&#58971;" d="M901.747-31.404 63.383-31.404 63.383 807.004l688.652 0L752.035 866.886 3.496 866.886l0-958.181 958.13 0L961.626 447.684l-59.88 0L901.747-31.404 901.747-31.404zM1021.558 724.719l-77.294 82.137L467.846 312.777 260.441 526.699l-77.331-82.143 285.323-296.164 77.32 82.068-0.385 0.395L1021.558 724.719z"  horiz-adv-x="1024" />

    
    <glyph glyph-name="wodejiangpin" unicode="&#58943;" d="M858.096483 263.536394l-44.378743 0c15.765055 19.940145 30.071899 47.197952 13.888312 68.393693-19.736507 25.89681-99.200326 20.985964-157.36505-68.393693l-4.803399 0c-58.996672 88.547709-138.358161 92.096535-160.287613 67.873854-17.538445-19.426445-2.084475-47.306422 14.516622-67.873854l-41.661865 0c-15.041578 0-27.15036-12.222369-27.15036-27.15036l0-67.873854c0-15.036461 12.216229-27.15036 27.15036-27.15036l0-149.319817c0-22.557762 18.273179-40.729633 40.72247-40.729633l298.645774 0c22.449291 0 40.72247 18.273179 40.72247 40.729633L858.095459 141.361821c15.035438 0 27.15036 12.113899 27.15036 27.15036l0 67.873854C885.247866 251.421472 873.024473 263.536394 858.096483 263.536394zM532.299325 317.831998c15.45397 6.475482 95.024214-54.295604 95.024214-54.295604l-67.873854 0C559.450708 263.536394 515.489474 310.836677 532.299325 317.831998zM654.474922-7.957996 518.727215-7.957996 518.727215 141.361821l135.747707 0L654.474922-7.957996zM654.474922 182.084291 491.576855 182.084291l0 40.72247 162.898067 0L654.474922 182.084291zM800.975531 318.25053c16.398482-6.996344-26.624381-54.505381-26.624381-54.505381l-66.61928 0C707.730846 263.746172 785.730315 324.828342 800.975531 318.25053zM817.374012-7.957996 681.626305-7.957996 681.626305 141.361821l135.747707 0L817.374012-7.957996zM844.518233 182.084291 681.626305 182.084291l0 40.72247L844.518233 222.806761 844.518233 182.084291zM416.899038-7.020648c0.00614 0 0.01228 0 0.01842-0.001023C416.854013-6.905014 416.850943-6.912178 416.899038-7.020648zM695.198415 602.905662c0 119.977535-97.216135 217.193671-217.193671 217.193671-119.982652 0-217.199811-97.216135-217.199811-217.193671 0-81.660858 45.113477-152.665005 111.73378-189.738365-128.125099-40.72247-220.330104-154.123216-220.330104-297.91104 0-53.255924 16.588817-89.457428 48.554856-114.445542 56.775074-44.381813 104.573707-49.498344 130.633223-49.498344 26.469861 0 105.879446 0 105.879446 0s-19.485797 39.635719-20.377096 41.666982c-124.670417 4.178159-221.357504 26.002211-223.967958 121.231085-4.176113 149.219533 124.157741 264.082584 271.393083 270.868127 0 0.208754 0.101307 0.626263 0.101307 0.626263 76.124771-0.417509 116.745934 23.810289 121.338532 26.631544-0.728594 0.208754-1.463328 0.51984-2.299369 0.829901C650.090055 450.240657 695.198415 521.244804 695.198415 602.905662zM502.748289 428.311205c-8.250918 0.51984-41.142026 0.51984-49.390897 0-85.831854 12.113899-151.829987 85.519746-151.829987 174.594457 0 97.419773 79.050404 176.470177 176.47734 176.470177 97.419773 0 176.470177-79.050404 176.470177-176.470177C654.474922 513.830951 588.476789 440.317657 502.748289 428.311205z"  horiz-adv-x="1024" />

    
    <glyph glyph-name="bangding" unicode="&#58900;" d="M512.612449 736.696808c-194.483436 0-352.081801-157.599388-352.081801-352.082824 0-194.483436 157.599388-352.081801 352.081801-352.081801 194.48446 0 352.082824 157.599388 352.082824 352.081801C864.696296 579.09742 707.096908 736.696808 512.612449 736.696808zM462.315926 432.89971l-125.743866 0c-27.830859 0-50.297546-22.466688-50.297546-50.297546 0-27.814486 22.466688-50.296523 50.297546-50.296523l125.743866 0 0-50.297546-125.743866 0c-55.494918 0-100.595093 45.100174-100.595093 100.595093 0 55.663764 45.100174 100.596116 100.595093 100.596116l125.743866 0L462.315926 432.89971zM688.654884 282.007071l-125.743866 0 0 50.297546 125.743866 0c27.830859 0 50.297546 22.48306 50.297546 50.296523 0 27.830859-22.466688 50.297546-50.297546 50.297546l-125.743866 0 0 50.297546 125.743866 0c55.511291 0 100.595093-44.932352 100.595093-100.596116C789.248953 327.107245 744.166175 282.007071 688.654884 282.007071zM803.967166 896 220.03181 896c-121.508401 0-220.010833-98.502431-220.010833-220.010833l0-583.978335c0-121.508401 98.502431-220.010833 220.010833-220.010833l583.936379 0c121.508401 0 220.010833 98.502431 220.010833 220.010833L1023.979022 675.989167C1023.977999 797.497569 925.475568 896 803.967166 896zM512.612449-17.766386c-222.314295 0-402.38037 180.066075-402.38037 402.38037 0 222.148519 180.065052 402.381393 402.38037 402.381393 222.316342 0 402.381393-180.232874 402.381393-402.381393C914.993842 162.299689 734.92879-17.766386 512.612449-17.766386z"  horiz-adv-x="1024" />

    
    <glyph glyph-name="luntan" unicode="&#59000;" d="M951.387101 242.119017 951.387101 491.824682c0 67.504454-51.327711 122.967573-117.12935 129.535574l0-247.394702c0-103.871719-84.532605-188.404324-188.404324-188.404324L355.645088 185.561231c-19.825632-18.244447-39.408006-32.961634-58.50386-45.124599 22.258225-17.757928 50.354674-28.461337 81.126975-28.461337l313.68286 0c125.400166-127.832759 258.827889-102.168904 232.190997-82.100012-39.772895 29.920893-60.449935 59.476897-69.572158 86.478679C910.27628 131.192778 951.387101 181.790711 951.387101 242.119017L951.387101 242.119017zM951.387101 242.119017M775.87552 373.965554 775.87552 623.67122c0 71.883122-58.260601 130.143723-130.143723 130.143723L202.756622 753.814942c-71.883122 0-130.143723-58.260601-130.143723-130.143723l0-249.827295c0-60.328305 41.110821-110.926238 96.817199-125.643426-9.243853-27.001782-29.799264-56.557786-69.572158-86.600309-10.46015-7.905927 3.770519-16.541632 32.475116-16.541632 44.394821 0 123.575722 20.920299 199.715881 98.641644l313.68286 0C717.614919 243.821832 775.87552 302.082433 775.87552 373.965554L775.87552 373.965554zM775.87552 373.965554"  horiz-adv-x="1024" />

    
    <glyph glyph-name="tips1" unicode="&#59002;" d="M512 832C262.4 832 64 633.6 64 384s198.4-448 448-448 448 198.4 448 448S761.6 832 512 832zM537.6 153.6l-64 0 0 70.4 64 0L537.6 153.6zM646.4 460.8C640 441.6 620.8 428.8 601.6 403.2 576 384 563.2 364.8 556.8 358.4 550.4 345.6 544 339.2 537.6 326.4 537.6 313.6 531.2 294.4 531.2 275.2L473.6 275.2c0 25.6 0 44.8 6.4 57.6 6.4 12.8 12.8 25.6 19.2 38.4C505.6 384 518.4 403.2 544 422.4 563.2 441.6 576 460.8 582.4 467.2S595.2 492.8 595.2 512 582.4 550.4 569.6 563.2C556.8 582.4 537.6 588.8 512 588.8c-57.6 0-89.6-38.4-89.6-108.8L364.8 480c0 32 6.4 57.6 12.8 70.4C384 569.6 390.4 588.8 409.6 601.6c12.8 12.8 32 25.6 51.2 32C473.6 633.6 492.8 640 512 640c38.4 0 76.8-12.8 102.4-38.4C640 576 652.8 544 652.8 505.6 652.8 486.4 652.8 473.6 646.4 460.8z"  horiz-adv-x="1024" />

    
    <glyph glyph-name="tequan" unicode="&#58891;" d="M937.293508 28.091788 160.331569 28.091788C137.272061 28.091788 117.695124 44.896234 113.669529 68.049114L1.137208 720.048837C-2.345363 740.034655 6.986244 760.196307 24.190704 770.2802 41.573502 780.357958 63.166242 778.305195 78.350892 765.238253L315.500334 559.28926 509.105619 864.94448C526.492427 892.570912 571.136659 892.570912 588.519455 864.94448L782.116726 559.477362 1019.083825 765.426355C1034.274487 778.681399 1056.053577 780.544016 1073.252027 770.468301 1090.636827 760.382364 1099.780078 740.220712 1096.303518 720.236939L983.955545 67.867145C979.929952 44.89419 960.344999 28.091788 937.293508 28.091788L937.293508 28.091788 937.293508 28.091788ZM200.044498 124.626868 897.582583 124.626868 980.480988 604.662688 802.435063 450.067536C792.001376 441.10612 778.457823 437.184605 764.914269 439.045178 751.380734 441.10612 739.480282 448.945059 731.978124 460.517408L548.80853 749.73621 365.644945 460.517408C358.134775 448.756954 346.242337 440.913929 332.700787 439.045178 318.982905 436.996501 305.441356 441.10612 295.190014 450.067536L117.146088 604.662688 200.044498 124.626868 200.044498 124.626868 200.044498 124.626868ZM937.293508-128 160.331569-128C134.162194-128 112.936145-106.343758 112.936145-79.64148 112.936145-52.939197 134.162194-31.282955 160.331569-31.282955L937.295511-31.282955C963.462883-31.282955 984.690933-52.939197 984.690933-79.64148 984.690933-106.343758 963.46088-128 937.293508-128L937.293508-128 937.293508-128Z"  horiz-adv-x="1114" />

    
    <glyph glyph-name="bianji" unicode="&#58912;" d="M832.161 544.21c-17.673 0-32-14.327-32-32v-479.85H224.037V672.216h414.605c17.673 0 32 14.327 32 32 0 17.673-14.327 32-32 32H192.037c-17.673 0-32-14.327-32-32V0.36c0-17.673 14.327-32 32-32h640.124c17.673 0 32 14.327 32 32V512.21c0 17.673-14.327 32-32 32zM485.612 361.778c6.249-6.248 14.438-9.372 22.627-9.372s16.379 3.124 22.627 9.372l321.407 321.406c12.496 12.497 12.496 32.758 0 45.255-12.498 12.497-32.759 12.497-45.255 0L485.612 407.033c-12.497-12.496-12.497-32.758 0-45.255zM736 269c0 17.673-14.327 32-32 32H322c-17.673 0-32-14.327-32-32s14.327-32 32-32h382c17.673 0 32 14.327 32 32zM322 171c-17.673 0-32-14.327-32-32s14.327-32 32-32h251c17.673 0 32 14.327 32 32s-14.327 32-32 32H322z"  horiz-adv-x="1024" />

    
    <glyph glyph-name="close" unicode="&#58913;" d="M511.333 768.667c51.868 0 102.15-10.144 149.451-30.15 45.719-19.337 86.792-47.034 122.078-82.321 35.287-35.286 62.983-76.359 82.321-122.078 20.006-47.3 30.15-97.583 30.15-149.451s-10.144-102.15-30.15-149.451c-19.337-45.719-47.034-86.792-82.321-122.078-35.286-35.287-76.359-62.983-122.078-82.321-47.3-20.006-97.583-30.15-149.451-30.15s-102.15 10.144-149.451 30.15c-45.719 19.337-86.792 47.034-122.078 82.321-35.287 35.286-62.983 76.359-82.321 122.078-20.006 47.3-30.15 97.583-30.15 149.451s10.144 102.15 30.15 149.451c19.337 45.719 47.034 86.792 82.321 122.078 35.286 35.287 76.359 62.983 122.078 82.321 47.301 20.006 97.583 30.15 149.451 30.15M511.333 832.667c-247.424 0-448-200.576-448-448s200.576-448 448-448 448 200.576 448 448-200.576 448-448 448zM557.254 384l147.373 147.373c12.497 12.497 12.497 32.758 0 45.255-12.496 12.497-32.758 12.497-45.254 0l-147.373-147.374-147.373 147.373c-12.497 12.497-32.758 12.497-45.255 0s-12.497-32.758 0-45.255l147.374-147.372-147.373-147.373c-12.497-12.496-12.497-32.758 0-45.254 6.248-6.249 14.438-9.373 22.627-9.373s16.379 3.124 22.627 9.373l147.373 147.373 147.373-147.373c6.248-6.249 14.438-9.373 22.627-9.373s16.379 3.124 22.627 9.373c12.497 12.496 12.497 32.758 0 45.254l-147.373 147.373z"  horiz-adv-x="1024" />

    
    <glyph glyph-name="shaixuan" unicode="&#58914;" d="M576.111-31.64c-4.956 0-9.922 1.15-14.485 3.467l-128.026 65a32 32 0 0 0-17.513 28.533V398.317L165.184 649.221a32 32 0 0 0 22.627 54.627h640.857a32 32 0 0 0 22.627-54.627L608.112 406.037V0.36a31.997 31.997 0 0 0-32.001-32z m-96.024 116.642l64.025-32.507V419.292a31.996 31.996 0 0 0 9.373 22.627l197.928 197.929H265.066L470.714 434.2a32.001 32.001 0 0 0 9.373-22.627v-326.571z"  horiz-adv-x="1024" />

    
    <glyph glyph-name="shanchu" unicode="&#58915;" d="M847.743 672.047H640.639c-3.132 68.921-60.177 124.029-129.858 124.029s-126.726-55.108-129.858-124.029H173.256c-17.673 0-32-14.327-32-32s14.327-32 32-32h674.487c17.673 0 32 14.327 32 32s-14.327 32-32 32z m-336.962 60.03c34.379 0 62.689-26.426 65.718-60.029H445.064c3.029 33.603 31.338 60.029 65.717 60.029zM767.743 544.21c-17.673 0-32-14.327-32-32v-478.173H288.256V512.21c0 17.673-14.327 32-32 32s-32-14.327-32-32v-510.173c0-17.673 14.327-32 32-32h511.487c17.673 0 32 14.327 32 32V512.21c0 17.673-14.327 32-32 32zM449.306 163.198V447.792c0 17.673-14.327 32-32 32s-32-14.327-32-32v-284.593c0-17.673 14.327-32 32-32s32 14.326 32 31.999zM640.84 163.198V447.792c0 17.673-14.327 32-32 32s-32-14.327-32-32v-284.593c0-17.673 14.327-32 32-32s32 14.326 32 31.999z"  horiz-adv-x="1024" />

    
    <glyph glyph-name="tixing" unicode="&#58916;" d="M891.851 82.284L814 194.439V484.127c0 61.969-24.132 120.229-67.951 164.048-43.82 43.82-102.079 67.952-164.049 67.952h-38V743c0 17.673-14.327 32-32 32s-32-14.327-32-32v-26.873h-38c-61.97 0-120.23-24.132-164.049-67.952C234.132 604.356 210 546.096 210 484.127v-289.688l-77.85-112.155a31.999 31.999 0 0 1 26.288-50.247h245.508C416.92-15.461 460.444-50.48 512-50.48s95.08 35.019 108.054 82.518h245.508a32 32 0 0 1 26.289 50.246zM512 13.52c-15.359 0-29.045 7.259-37.837 18.518h75.675c-8.792-11.259-22.479-18.518-37.838-18.518z m-292.396 82.517l48.684 70.138A32.002 32.002 0 0 1 274 184.422V484.127c0 92.636 75.364 168 168 168h140c92.636 0 168-75.364 168-168v-299.705a32.002 32.002 0 0 1 5.712-18.247l48.686-70.138H219.604z"  horiz-adv-x="1024" />

    
    <glyph glyph-name="tianjia" unicode="&#58918;" d="M801.171 412.411H544V669.582c0 17.673-14.327 32-32 32s-32-14.327-32-32v-257.171H222.83c-17.673 0-32-14.327-32-32s14.327-32 32-32H480v-257.17c0-17.673 14.327-32 32-32s32 14.327 32 32v257.17h257.171c17.673 0 32 14.327 32 32s-14.327 32-32 32z"  horiz-adv-x="1024" />

    
    <glyph glyph-name="youjian" unicode="&#58919;" d="M893.842 678.443H130.159c-16.261 0-29.443-13.182-29.443-29.443v-530c0-16.261 13.182-29.443 29.443-29.443h763.683c16.261 0 29.443 13.183 29.443 29.443V649c0 16.261-13.182 29.443-29.443 29.443z m-85.584-58.886L512 388.349 215.742 619.557h592.516zM159.602 148.443v440.23l334.283-260.885A29.4 29.4 0 0 1 512 321.557a29.4 29.4 0 0 1 18.115 6.231l334.283 260.884v-440.229H159.602z"  horiz-adv-x="1024" />

    
    <glyph glyph-name="zhuyi" unicode="&#58920;" d="M511.333 768.667c51.868 0 102.15-10.144 149.451-30.15 45.719-19.337 86.792-47.034 122.078-82.321 35.287-35.286 62.983-76.359 82.321-122.078 20.006-47.3 30.15-97.583 30.15-149.451s-10.144-102.15-30.15-149.451c-19.337-45.719-47.034-86.792-82.321-122.078-35.286-35.287-76.359-62.983-122.078-82.321-47.3-20.006-97.583-30.15-149.451-30.15s-102.15 10.144-149.451 30.15c-45.719 19.337-86.792 47.034-122.078 82.321-35.287 35.286-62.983 76.359-82.321 122.078-20.006 47.3-30.15 97.583-30.15 149.451s10.144 102.15 30.15 149.451c19.337 45.719 47.034 86.792 82.321 122.078 35.286 35.287 76.359 62.983 122.078 82.321 47.301 20.006 97.583 30.15 149.451 30.15m0 64c-247.424 0-448-200.576-448-448s200.576-448 448-448 448 200.576 448 448-200.576 448-448 448zM543.334 320h-64.001l-31.246 320.047h128.025zM512.099 193.035m-40 0a40 40 0 1 1 80 0 40 40 0 1 1-80 0Z"  horiz-adv-x="1024" />

    
    <glyph glyph-name="xuanzhong" unicode="&#58921;" d="M512 832C264.576 832 64 631.424 64 384s200.576-448 448-448 448 200.576 448 448S759.424 832 512 832z m271.529-719.529c-35.286-35.287-76.359-62.983-122.078-82.321C614.15 10.144 563.868 0 512 0c-51.868 0-102.15 10.144-149.451 30.15-45.719 19.337-86.792 47.034-122.078 82.321-35.287 35.286-62.983 76.359-82.321 122.078C138.144 281.85 128 332.132 128 384s10.144 102.15 30.15 149.451c19.337 45.719 47.034 86.792 82.321 122.078 35.286 35.287 76.359 62.983 122.078 82.321C409.85 757.856 460.132 768 512 768c51.868 0 102.15-10.144 149.451-30.15 45.719-19.337 86.792-47.034 122.078-82.321 35.287-35.286 62.983-76.359 82.321-122.078C885.856 486.15 896 435.868 896 384s-10.144-102.15-30.15-149.451c-19.338-45.718-47.034-86.792-82.321-122.078zM707.576 533.474L448.465 274.363 316.424 406.404c-12.497 12.497-32.758 12.497-45.255 0s-12.497-32.758 0-45.255l154.668-154.668c6.249-6.249 14.438-9.373 22.627-9.373s16.379 3.124 22.627 9.373L752.83 488.219c12.497 12.497 12.497 32.758 0 45.255-12.496 12.497-32.758 12.497-45.254 0z"  horiz-adv-x="1024" />

    
    <glyph glyph-name="shoucang" unicode="&#58922;" d="M902.211 485.642a31.766 31.766 0 0 1-25.644 21.62L644.34 541.006 540.485 751.439a31.765 31.765 0 0 1-56.971 0L379.659 541.005l-232.227-33.744a31.768 31.768 0 0 1-17.606-54.183l168.042-163.8-39.669-231.288a31.765 31.765 0 0 1 46.091-33.487L512 133.702l207.71-109.199c6.915-3.65 22.854-4.496 33.454 2.418 10.086 6.579 14.681 19.151 12.637 31.069l-39.669 231.288 168.041 163.8a31.765 31.765 0 0 1 8.038 32.564zM669.827 323.115a31.766 31.766 0 0 1-9.136-28.117l31.611-184.31-165.521 87.02a31.746 31.746 0 0 1-14.782 3.648 31.755 31.755 0 0 1-14.782-3.648l-165.521-87.02 31.611 184.31a31.766 31.766 0 0 1-9.135 28.117l-133.91 130.53 185.058 26.89a31.765 31.765 0 0 1 23.918 17.377L512 665.604l82.761-167.691a31.765 31.765 0 0 1 23.917-17.377l185.059-26.89-133.91-130.531z"  horiz-adv-x="1024" />

    
    <glyph glyph-name="shoucangxuanzhong" unicode="&#58923;" d="M902.211 485.642a31.766 31.766 0 0 1-25.644 21.62L644.34 541.006 540.485 751.439a31.765 31.765 0 0 1-56.971 0L379.659 541.005l-232.227-33.744a31.768 31.768 0 0 1-17.606-54.183l168.042-163.8-39.669-231.288a31.765 31.765 0 0 1 46.091-33.487L512 133.702l207.71-109.199c6.915-3.65 22.854-4.496 33.454 2.418 10.086 6.579 14.681 19.151 12.637 31.069l-39.669 231.288 168.041 163.8a31.765 31.765 0 0 1 8.038 32.564z"  horiz-adv-x="1024" />

    
    <glyph glyph-name="caidan" unicode="&#58924;" d="M192.037 608.047h640.124c17.673 0 32 14.327 32 32s-14.327 32-32 32H192.037c-17.673 0-32-14.327-32-32s14.327-32 32-32zM192.028 352.83h638.608c17.673 0 32 14.327 32 32s-14.327 32-32 32H192.028c-17.673 0-32-14.327-32-32s14.327-32 32-32zM832.161 160.198H192.037c-17.673 0-32-14.327-32-32s14.327-32 32-32h640.124c17.673 0 32 14.327 32 32s-14.327 32-32 32z"  horiz-adv-x="1024" />

    
    <glyph glyph-name="shang" unicode="&#58940;" d="M904 204c0-8.189-3.124-16.379-9.372-22.628-12.497-12.496-32.759-12.496-45.256 0L512 518.745 174.628 181.372c-12.497-12.496-32.758-12.496-45.255 0-12.497 12.498-12.497 32.758 0 45.256l360 360c12.497 12.496 32.758 12.496 45.255 0l360-360C900.876 220.379 904 212.189 904 204z"  horiz-adv-x="1024" />

    
    <glyph glyph-name="xia" unicode="&#58941;" d="M904 564c0 8.189-3.124 16.379-9.372 22.628-12.497 12.496-32.759 12.496-45.256 0L512 249.255 174.628 586.628c-12.497 12.496-32.758 12.496-45.255 0-12.497-12.498-12.497-32.758 0-45.256l360-360c12.497-12.496 32.758-12.496 45.255 0l360 360C900.876 547.621 904 555.811 904 564z"  horiz-adv-x="1024" />

    
    <glyph glyph-name="zuo" unicode="&#58942;" d="M481.233-8c8.189 0 16.379 3.124 22.628 9.372 12.496 12.497 12.496 32.759 0 45.256L166.488 384l337.373 337.373c12.496 12.497 12.496 32.758 0 45.255-12.498 12.497-32.758 12.497-45.256 0l-360-360c-12.496-12.497-12.496-32.758 0-45.255l360-360c6.249-6.249 14.439-9.373 22.628-9.373z"  horiz-adv-x="1024" />

    
    <glyph glyph-name="error" unicode="&#58944;" d="M613.316 386.42l224.878 224.871c28.214 28.221 28.214 73.962 0 102.176-28.221 28.214-73.955 28.214-102.183 0l-224.871-224.864-224.871 224.864c-28.221 28.214-73.955 28.214-102.183 0-28.214-28.214-28.214-73.962 0-102.176l224.871-224.871-224.871-224.878c-28.214-28.221-28.214-73.962 0-102.183 13.044-13.074 31.080-21.162 51.005-21.162 0.029 0 0.058 0 0.087 0 0.020-0 0.049-0 0.078-0 19.925 0 37.961 8.088 51.004 21.161l224.872 224.88 224.878-224.878c13.044-13.074 31.080-21.162 51.005-21.162 0.029 0 0.058 0 0.087 0 0.022-0 0.053-0 0.084-0 19.923 0 37.957 8.088 50.998 21.161 28.215 28.222 28.215 73.964 0.001 102.185l-224.871 224.878z"  horiz-adv-x="1024" />

    
    <glyph glyph-name="tuichu" unicode="&#58928;" d="M236.032 748.032c-32.256-23.04-60.928-49.152-86.016-77.824-25.088-29.184-46.592-60.416-64.512-94.208-17.92-33.792-31.744-69.12-40.96-107.008C35.328 431.616 30.72 393.216 30.72 354.816c0-66.56 12.8-129.024 38.4-187.392 25.6-58.368 59.904-109.056 103.424-152.576s94.208-77.824 152.576-103.424c58.368-25.6 120.832-38.4 187.392-38.4 66.048 0 128 12.8 186.368 38.4 58.368 25.6 109.568 59.904 153.088 103.424s78.336 94.208 103.424 152.576c25.088 58.368 37.376 120.832 37.376 187.392 0 37.888-4.608 75.264-13.312 111.616-9.216 36.352-21.504 71.168-38.4 104.448-16.384 32.768-36.864 64-61.44 92.672-24.576 28.672-51.712 54.272-81.92 77.312-15.872 11.264-32.768 15.872-51.2 12.8-18.432-3.072-33.28-11.776-44.544-26.624-11.264-14.848-15.872-31.744-12.8-50.688 3.072-18.432 11.776-33.792 26.624-45.056 45.056-32.768 79.872-73.216 103.936-121.344 24.064-48.128 35.84-99.84 35.84-154.624 0-47.104-8.704-92.16-26.624-133.632-17.92-41.984-42.496-78.336-73.728-109.568-31.232-31.232-67.584-55.808-109.568-74.24-41.984-18.432-86.528-27.648-133.632-27.648-47.104 0-92.16 9.216-133.632 27.648-41.984 18.432-78.336 43.008-109.568 74.24-31.232 31.232-55.808 67.584-74.24 109.568-18.432 41.984-27.648 86.528-27.648 133.632 0 55.808 12.8 108.544 38.912 158.72 25.6 49.664 61.952 90.624 108.544 122.88 15.872 10.752 25.088 25.6 28.672 44.032 3.072 18.432-0.512 35.84-11.264 51.712-10.752 14.848-25.6 24.064-44.032 27.648-18.944 2.048-36.352-1.536-51.712-12.288z m275.968-396.8c18.432 0 34.816 6.656 47.616 19.968 13.312 13.312 19.968 29.184 19.968 47.616V827.392c0 18.432-6.656 34.816-19.968 48.128-13.312 13.824-29.184 20.48-47.616 20.48-19.456 0-35.84-6.656-49.152-20.48-13.312-13.824-19.968-29.696-19.968-48.128v-408.576c0-18.432 6.656-34.816 19.968-47.616 13.824-13.312 29.696-19.968 49.152-19.968z"  horiz-adv-x="1024" />

    
    <glyph glyph-name="gengduo" unicode="&#58882;" d="M6.486 384c0-69.797 56.581-126.38 126.38-126.38s126.38 56.581 126.38 126.38c0 0 0 0 0 0 0 69.797-56.581 126.38-126.38 126.38-69.797 0-126.38-56.581-126.38-126.38 0 0 0 0 0 0zM385.62 384c0-69.797 56.581-126.38 126.38-126.38s126.38 56.581 126.38 126.38c0 0 0 0 0 0 0 69.797-56.581 126.38-126.38 126.38-69.797 0-126.38-56.581-126.38-126.38 0 0 0 0 0 0zM764.756 384c0 0 0 0 0 0 0-69.797 56.581-126.38 126.38-126.38 69.797 0 126.38 56.581 126.38 126.38 0 0 0 0 0 0 0 0 0 0 0 0 0 69.797-56.581 126.38-126.38 126.38-69.797 0-126.38-56.581-126.38-126.38s0 0 0 0z"  horiz-adv-x="1024" />

    
    <glyph glyph-name="renzheng" unicode="&#58956;" d="M890.752 679.424a31.3856 31.3856 0 0 1-30.90944 31.42656l-34.37056 0.57344c-2.048 0.06656-73.344 2.10944-146.176 31.616-76.672 31.232-126.53056 66.74944-128 67.84-0.128 0.06656-0.18944 0.128-0.256 0.128l-20.736 15.04256a31.5136 31.5136 0 0 1-36.93056-0.06656L472.832 811.008c-0.512-0.32256-51.072-36.608-128.256-67.968-72.64256-29.50656-144-31.54944-145.98656-31.616h-0.06144l-34.56-0.57344a31.3344 31.3344 0 0 1-30.91456-31.42656v-350.208c0-87.552 50.24256-185.78944 137.92256-269.50656C350.78656-16.64 443.136-64 512-64c68.80256 0 161.21344 47.36 241.024 123.71456 87.61344 83.64544 137.92256 181.888 137.92256 269.50144l-0.19456 350.208z m-185.02144-211.90656l-207.36-207.42656c-7.424-7.48544-17.536-11.648-28.09856-11.648s-20.66944 4.16256-28.16 11.648L338.432 363.83744a39.75168 39.75168 0 0 0 0 56.25344c15.55456 15.55456 40.77056 15.55456 56.25856 0l75.58656-75.58656 179.2 179.26656c15.54944 15.55456 40.76544 15.55456 56.25344 0a39.75168 39.75168 0 0 0 0-56.25344z"  horiz-adv-x="1024" />

    
    <glyph glyph-name="duigou" unicode="&#58881;" d="M512 894.656C235.114667 894.656 10.666667 670.208 10.666667 393.322667s224.448-501.333333 501.333333-501.333334 501.333333 224.448 501.333333 501.333334S788.885333 894.656 512 894.656z m-48.277333-746.666667c-79.893333 93.504-173.909333 164.757333-239.722667 187.008l155.114667 89.045334 75.221333-138.026667s122.218667 280.469333 314.965333 373.973333c-4.736-66.794667-23.530667-124.672 9.365334-195.904-84.608-17.813333-258.538667-218.154667-314.944-316.096z"  horiz-adv-x="1024" />

    
    <glyph glyph-name="touxiang" unicode="&#59062;" d="M54.582641 839.371258v-910.742516h914.835741v910.742516h-914.835741z m827.218218-816.941154v-19.787672H773.426593l17.06977 0.235361H602.761632v0.007163h-19.283182l-30.402428-0.243547H142.142859v19.788695s-8.922207 110.538559 153.86125 138.835022c0 0 123.920334 16.72901 132.589784 50.805106 0 0 4.734838 3.790326 1.243317 43.36874-7.433296 84.270289-62.581314 123.926474-84.880179 156.141177-22.308075 32.221866-24.165376 69.39551-24.165376 69.39551 0 9.29162 3.89368 12.695137 10.355859 18.664081 8.001231 7.381108 5.601578 15.226796 4.070712 23.530926-5.807263 31.537274-6.319939 82.20628-0.792039 113.944122 1.237177 37.794791 35.930327 68.153216 35.930327 68.153216 6.513344 5.520737 13.035898 11.601222 17.605983 18.889209 1.276063 2.029216 2.451842 4.205788 3.143597 6.512321 2.612501 8.700149-6.235005 15.087627-4.454452 24.344455 1.596358 8.343015 15.903202 8.754385 24.548093 9.209755 19.478633 1.025353 39.060621 1.793856 58.501392 0.300852 145.55098-11.156084 193.409988-64.738443 193.409988-64.738443 11.325953-13.56904 18.788925-30.160927 23.291472-47.167253 1.334391-5.084808 2.491751-10.276041 3.115967-15.505135 4.535293-26.066679 4.519943-53.250808 3.109828-79.592756-0.670266-12.56006-2.127454-24.921599-3.979638-37.353746-0.959861-6.502088-0.463558-12.55699 3.877307-17.75334 3.63683-4.344958 7.792477-7.384178 9.575076-13.098319 0.835018-2.668783 1.049912-5.553483 1.049913-8.340969 0 0-1.858324-37.174668-24.1664-69.397556-22.308075-32.218796-77.44586-71.865771-84.884272-156.140153-3.491521-39.573297 1.238201-43.363623 1.2382-43.363624C604.017228 177.990043 727.933469 161.26615 727.933469 161.26615c164.610058-30.528294 153.86739-138.836045 153.86739-138.836046z"  horiz-adv-x="1024" />

    
    <glyph glyph-name="sj1" unicode="&#58895;" d="M941.568 245.24800000000005c45.056-48.64 14.848-129.536-65.536-129.536h-730.112c-80.896 0-111.616 83.968-57.344 137.728 172.032 178.175 192.512 199.681 351.232 364.032 46.08 49.152 98.816 45.056 142.848 0 184.319-191.488 180.224-187.904 358.912-372.224zM876.032 167.42399999999998c23.552 0 39.424 29.696 24.064 48.64-167.425 173.568-182.784 189.44-362.496 375.296-19.968 19.968-35.328 19.968-52.736 0-164.352-170.495-172.032-178.175-354.304-367.104-28.672-28.672-7.68-56.32 15.872-56.32 243.199-0.512 486.4-0.512 729.6-0.512z"  horiz-adv-x="1024" />

    
    <glyph glyph-name="extend" unicode="&#58977;" d="M512.297 0.22l-319.861 319.857h639.729l-319.868-319.857zM512.304 768.511h-0.005l-319.863-319.857h639.729l-319.861 319.857z"  horiz-adv-x="1024" />

    
    <glyph glyph-name="jiantou" unicode="&#59712;" d="M277.44 278.72l250.773 250.667L778.88 278.72z"  horiz-adv-x="1024" />

    
    <glyph glyph-name="sousuo" unicode="&#58892;" d="M943.592727 50.944l-217.064727 222.766545c-2.513455 2.583273-5.329455 4.538182-7.982545 6.679273a372.829091 372.829091 0 0 1 58.065454 200.587637C776.610909 684.497455 615.889455 849.454545 417.466182 849.454545 219.159273 849.454545 58.321455 684.497455 58.321455 481.000727c0-203.543273 160.861091-368.453818 359.168-368.453818 72.168727 0 139.264 22.016 195.630545 59.648 2.048-2.792727 3.956364-5.562182 6.423273-8.168727l217.111272-222.766546c14.801455-15.150545 34.117818-22.714182 53.457455-22.714181s38.656 7.563636 53.457455 22.714181a79.034182 79.034182 0 0 1 0.023272 109.684364z m-526.126545 177.966545c-135.470545 0-245.736727 113.082182-245.736727 252.090182 0 138.961455 110.266182 252.113455 245.736727 252.113455 135.447273 0 245.736727-113.152 245.736727-252.113455 0-139.008-110.266182-252.090182-245.736727-252.090182z"  horiz-adv-x="1024" />

    
    <glyph glyph-name="shijian" unicode="&#58992;" d="M782.153348 827.652356H241.6512c-95.499028 0-173.367513-73.003687-173.367512-162.586982v-562.132794c0-89.731674 77.868485-162.585959 173.367512-162.585959h540.501125c95.664803 0 173.435051 72.853261 173.435051 162.585959v562.132794c0.001023 89.584318-77.769224 162.586982-173.434028 162.586982m111.461581-724.718753c0-55.456033-49.990554-100.545974-111.462604-100.545974H241.6512c-61.372789 0-111.295805 45.089941-111.295805 100.545974v562.132794c0 55.423287 49.92404 100.515275 111.295805 100.515275h540.501125c61.47205 0 111.462604-45.091988 111.462604-100.515275v-562.132794zM518.951831 708.507792H456.978361v-463.014333H805.09792V307.547771H518.951831z"  horiz-adv-x="1024" />

    
    <glyph glyph-name="zan" unicode="&#58886;" d="M827.101 369.889c-5.391-22.324-33.74-40.474-17.542-57.232 16.199-16.759 10.783-50.256-5.39-67.014-16.199-16.736 4.049-37.668 6.732-61.405 2.708-23.736-13.491-30.713-28.348-44.67-14.833-13.951 0-15.368-9.44-55.84-9.442-40.497-71.53-61.427-164.646-61.427-93.117 0-269.913 40.471-269.913 40.471v283.378s55.329-15.345 80.969 57.245c28.25 37.021 31.91 77.639 40.18 98.998 8.245 21.359 41.618 55.050 59.696 65.722 37.79 22.334 33.738 149.362 33.738 149.362s1.341 2.805 32.397 4.196c31.031 1.389 86.043-70.113 55.33-143.789-40.497-83.749-47.229-125.624-37.789-131.211 9.439-5.585 101.216 0 147.106-2.792 45.887-2.793 82.31-51.646 76.92-73.992zM265.099 45.989h-34.056c-29.374 0-53.16 18.466-53.16 41.276v227.756c0 22.811 23.786 41.305 53.16 41.305h34.056c29.348 0 53.156-18.494 53.156-41.305v-227.756c0-22.81-23.809-41.276-53.156-41.276z"  horiz-adv-x="1024" />

    
    <glyph glyph-name="tupian" unicode="&#58894;" d="M186.629539 690.8508v-634.257976c0-59.186883 11.50641-70.478269 67.676065-70.47827h766.985083c55.706921 0 67.676065 10.80801 67.676065 70.47827V690.8508c0 57.791802-10.617068 70.474829-67.676065 70.474828H254.302164c-55.95635-0.00172-67.674345-10.085526-67.674345-70.474828h0.00172z m796.082247-540.288671h-689.369708c75.339551 114.405268 209.327563 305.147803 243.380621 305.147802 32.95557 0 144.823545-154.112619 195.354387-208.362531 0 0 64.989114 90.425695 99.040452 90.425695 34.730816-0.005161 150.464077-186.276898 151.594248-187.210966z m-202.565462 399.344174c0 47.923021 37.209622 86.672221 83.228384 86.672221 46.023922 0 83.231824-38.750921 83.231823-86.672221 0-47.91614-37.207902-86.670501-83.231823-86.670501-46.018761 0-83.228383 38.750921-83.228384 86.670501zM609.805349 803.840344l-131.940976 26.073055c-43.791103 8.654321-61.14619 5.5356-71.859589-26.073055h203.800565z m621.588711-122.839403l-103.275581 20.408439c0.044725-2.612982 0.063647-5.210482 0.063647-7.770138v-637.865233c0-29.596022-1.887058-63.096896-24.352856-86.023707-21.849966-22.305819-53.510227-24.175675-81.47034-24.175675h-62.27292l132.513802-26.190028c54.733289-10.81489 68.424352-2.523532 79.110227 56.097406l113.55893 623.13173c10.346996 56.782045 2.191533 71.302244-53.873189 82.380325v0.006881h-0.00172z"  horiz-adv-x="1448" />

    
    <glyph glyph-name="tips" unicode="&#59030;" d="M515.994-77.276c-65.884 0-127.933 12.447-186.153 37.345s-108.974 58.988-152.253 102.272c-43.284 43.284-77.373 94.034-102.272 152.253-24.899 58.22-37.345 120.274-37.345 186.153s12.447 127.933 37.345 186.153c24.899 58.22 58.988 108.974 102.272 152.253 43.284 43.284 94.034 77.373 152.253 102.272 58.22 24.899 120.274 37.345 186.153 37.345s127.933-12.447 186.153-37.345c58.22-24.899 108.974-58.988 152.253-102.272 43.284-43.284 77.373-94.034 102.272-152.253 24.899-58.22 37.345-120.274 37.345-186.153s-12.447-127.933-37.345-186.153c-24.899-58.22-58.988-108.974-102.272-152.253-43.284-43.284-94.034-77.373-152.253-102.272-58.22-24.899-120.269-37.345-186.153-37.345zM515.994 673.905c-18.97 0-35.092-6.641-48.374-19.917-13.276-13.276-19.917-29.404-19.917-48.374s6.641-35.092 19.917-48.374c13.276-13.276 29.404-19.917 48.374-19.917s35.092 6.641 48.374 19.917c13.276 13.276 19.917 29.404 19.917 48.374s-6.641 35.092-19.917 48.374c-13.281 13.276-29.404 19.917-48.374 19.917zM571.151 416.737c0 14.531-5.361 26.875-16.087 37.048-10.726 10.168-23.747 15.252-39.071 15.252s-28.344-5.084-39.071-15.252c-10.726-10.168-16.087-22.518-16.087-37.048v-244.070c0-14.525 5.361-26.875 16.087-37.048 10.726-10.168 23.747-15.252 39.071-15.252s28.344 5.084 39.071 15.252 16.087 22.518 16.087 37.048v244.070z"  horiz-adv-x="1024" />

    
    <glyph glyph-name="didian" unicode="&#58994;" d="M500.224 885.248c-187.904 0-340.992-153.6-340.992-341.504 0-68.096 19.968-135.168 57.856-191.488 1.536-2.56 3.584-7.168 5.632-10.752L435.2 77.312c16.896-24.576 45.056-40.448 77.312-40.448 29.696 0 56.32 13.824 73.728 35.328l2.048 3.072c1.024 1.536 2.56 3.584 3.584 5.12l201.216 292.352c3.072 3.072 5.632 6.656 7.168 10.752 30.72 50.176 44.032 100.352 44.032 166.912-0.512 184.832-154.624 334.848-344.064 334.848z m1.024-499.712c-84.48 0-152.576 68.096-152.576 152.576s68.096 152.576 152.576 152.576 152.576-68.096 152.576-152.576-68.096-152.576-152.576-152.576zM726.016 179.712L610.816 20.48c-1.536-2.048-2.56-4.096-4.096-6.144l-2.56-3.584c-20.992-25.088-53.248-40.96-89.6-40.96-38.912 0-73.216 18.432-94.208 46.592l-134.656 159.232c-88.064-27.136-145.408-70.144-145.408-118.272 0-82.432 166.912-148.992 372.224-148.992s372.224 66.56 372.224 148.992c-0.512 50.688-62.976 95.232-158.72 122.368z"  horiz-adv-x="1024" />

    
    <glyph glyph-name="weixin1" unicode="&#59051;" d="M1024 264.533333c0 145.066667-145.066667 264.533333-307.2 264.533334-170.666667 0-307.2-119.466667-307.2-264.533334 0-145.066667 136.533333-264.533333 307.2-264.533333 34.133333 0 72.533333 8.533333 106.666667 17.066667l98.133333-55.466667-25.6 93.866667c72.533333 55.466667 128 128 128 209.066666z m-409.6 46.933334c-17.066667 0-34.133333 17.066667-34.133333 34.133333s17.066667 34.133333 34.133333 34.133333c25.6 0 46.933333-17.066667 46.933333-34.133333s-17.066667-34.133333-46.933333-34.133333z m200.533333 0c-17.066667 0-34.133333 17.066667-34.133333 34.133333s17.066667 34.133333 34.133333 34.133333c25.6 0 46.933333-17.066667 46.933334-34.133333s-17.066667-34.133333-46.933334-34.133333zM691.2 550.4c12.8 0 21.333333 0 34.133333-4.266667-29.866667 145.066667-187.733333 256-366.933333 256C162.133333 802.133333 0 665.6 0 494.933333c0-98.133333 55.466667-179.2 145.066667-243.2l-34.133334-110.933333 128 64c46.933333-8.533333 81.066667-17.066667 128-17.066667h34.133334c-12.8 21.333333-17.066667 46.933333-17.066667 72.533334 0 157.866667 136.533333 290.133333 307.2 290.133333z m-192 98.133333c25.6 0 46.933333-17.066667 46.933333-46.933333 0-25.6-17.066667-46.933333-46.933333-46.933333-25.6 0-55.466667 17.066667-55.466667 46.933333 0 25.6 25.6 46.933333 55.466667 46.933333zM243.2 554.666667c-25.6 0-51.2 21.333333-51.2 46.933333 0 25.6 25.6 46.933333 55.466667 46.933333 25.6 0 46.933333-17.066667 46.933333-46.933333-4.266667-25.6-21.333333-46.933333-51.2-46.933333z"  horiz-adv-x="1024" />

    
    <glyph glyph-name="kefu" unicode="&#58909;" d="M515.530406 125.768681c4.366448 0 8.812713 0.267083 13.284561 0.800225 42.889833 5.14723 79.310324 35.124985 92.75452 76.437903 1.01205 3.093455-0.452301 6.40078-3.40761 7.760754-2.928702 1.359974-6.469342 0.186242-8.119935-2.586918-0.159636-0.267083-17.198707-27.79095-83.542718-36.752042-9.930163-1.333368-19.594267-2.02717-28.752858-2.02717-46.483684 0.026606-67.196425 17.548678-67.382667 17.709337-2.342348 2.080382-5.910617 2.133593-8.306176 0.106424-2.422166-2.02717-2.981914-5.547343-1.331321-8.241708C440.960037 146.17136 477.273081 125.768681 515.530406 125.768681zM872.252901 536.921855c-0.586354 0-1.118474-0.106424-1.677199-0.106424C831.705416 705.106322 683.175591 830.644503 505.09473 830.644503c-182.979428 0-334.916862-132.473127-368.595916-307.724547-32.745798-5.894244-57.665351-34.671661-57.665351-69.477374l0-139.300626c0-39.045271 31.309076-70.703295 69.965491-70.703295 21.804608 0 41.052998 10.29446 53.858652 26.110681 30.934546-81.82254 93.922113-147.803277 173.627433-182.610014 0.191358 0.415462 1.700735 3.348258 3.514033 5.685489 1.257643 1.620917 2.660596 2.952238 3.868097 2.952238 1.251503 0 2.396583-0.453325 3.381004-1.147126-18.450211 13.735839-85.086887 84.33271-99.516528 182.853561-6.336312 43.366693 26.143427 85.932138 63.975057 92.973508 60.727083 11.308557 121.134895 24.189935 181.861978 35.284621 38.603203 7.04137 64.987107 28.217668 81.120552 63.475683 3.780093 8.241708 9.238408 24.910343 11.741415 48.940642 0.665149 3.573385 3.593851 6.320962 7.348362 6.320962 2.503007 0 4.632507-1.280156 6.043646-3.120061l1.677199 1.039679c23.934109-34.751478 71.403237-111.695918 78.218456-192.827727 7.827269-92.76066 3.460822-156.289556-67.542302-221.285872-0.079818-0.079818-0.186242-0.186242-0.292666-0.267083-0.985444-1.066285-1.570775-2.453888-1.570775-3.973498 0-2.000564 1.065262-3.707438 2.609431-4.747117 0.585331-0.240477 1.171686-0.559748 1.757017-0.800225 0.478907-0.106424 0.931209-0.267083 1.411139-0.267083 0.479931 0 0.905626 0.159636 1.331321 0.267083 1.01205 0.533143 1.969864 1.147126 2.955308 1.680269 71.802326 39.552831 126.884852 105.615433 152.336524 185.066973 10.302647-15.308661 26.436092-26.323529 45.178969-30.163997-30.057573-136.713708-151.990646-222.272339-303.050084-235.261165-9.052167 22.456455-31.335682 38.405705-57.505715 38.405705-34.183544 0-61.898769-27.070542-61.898769-60.435441s27.714202-60.408835 61.898769-60.408835c27.554566 0 50.637284 17.709337 58.650795 42.032302 174.859493 14.21577 315.02993 118.150934 344.289324 279.640931 25.850761 10.80202 44.007283 36.165688 44.007283 65.769936L944.083879 465.57797C944.081833 504.970142 911.920342 536.921855 872.252901 536.921855zM807.744701 496.435769C762.140037 619.973386 643.960451 708.226383 504.935094 708.226383c-138.440026 0-256.192893-87.505983-302.224276-210.243375-2.289136 2.800789-4.978385 5.200442-7.614421 7.627724C221.160006 655.179212 349.882716 768.9023 505.09473 768.9023c154.467047 0 282.789645-112.602567 309.705668-261.131369C812.137755 504.196523 809.68796 500.462478 807.744701 496.435769zM376.292202 86.936257c-0.00307 0.001023-0.005117 0.002047-0.008186 0.00307C376.255363 86.874859 376.25434 86.866672 376.292202 86.936257z"  horiz-adv-x="1024" />

    
    <glyph glyph-name="suo" unicode="&#59213;" d="M829.632 465.088h-72.96v170.624c0 145.088-120.128 260.288-261.696 260.288s-261.696-115.2-261.696-260.288v-170.624h-72.96c-34.24 0-64.32-29.888-64.32-64v-465.088c0-34.112 30.080-64 64.384-64h669.248c34.304 0 64.384 29.888 64.384 64v465.088c0 38.4-30.080 64-64.384 64zM529.344 157.888v-102.4c0-4.288-4.288-8.576-8.576-8.576h-55.808c-4.288 0-8.576 4.288-8.576 8.576v102.4c-25.728 12.8-42.88 38.4-42.88 72.512 0.109 44.807 36.457 81.088 81.28 81.088 0.068 0 0.135-0 0.203-0 42.87 0 81.526-34.176 81.526-81.088 0-34.112-21.44-59.712-47.168-72.512zM653.76 465.088h-317.504v166.4c0 89.6 72.96 157.824 158.72 157.824 0.228 0.001 0.498 0.002 0.768 0.002 87.19 0 157.88-70.646 157.952-157.819l0-166.407z"  horiz-adv-x="1024" />

    
    <glyph glyph-name="shouji1" unicode="&#58926;" d="M960.268351 892.471872H484.721086s-78.169278 1.100927-78.169278-72.542508l-0.412848-875.053138s-7.329768-72.12966 74.503534-72.12966H963.930654s75.728316-1.102647 75.728317 69.203602V819.929364c0.00172 0 2.444403 72.542508-79.39062 72.542508zM644.111275 857.300685h156.355759v-35.171186H644.111275V857.300685z m-58.622658 0c10.789087 0 19.54662-7.880231 19.54662-17.583873 0-9.705362-8.757533-17.585593-19.54662-17.585593-10.787367 0-19.5449 7.880231-19.5449 17.585593 0 9.703642 8.755812 17.583873 19.5449 17.583873z m136.809139-914.24959c-21.595377 0-39.09324 15.727779-39.09324 35.171187 0 19.409004 17.497863 35.171187 39.09324 35.171187 21.576455 0 39.077758-15.762183 39.077758-35.171187-0.00172-19.443408-17.503024-35.171187-39.077758-35.171187z m240.826125 140.645182H481.46991V786.960032h481.655691l-0.00172-703.263755z"  horiz-adv-x="1448" />

    
    <glyph glyph-name="zhuyi1" unicode="&#59011;" d="M512 896C229.2224 896 0 666.7776 0 384s229.2224-512 512-512 512 229.2224 512 512S794.7776 896 512 896z m0-796.4672a56.8832 56.8832 0 1 0 0 113.8176 56.8832 56.8832 0 0 0 0-113.8176z m54.272 227.7376a60.3648 60.3648 0 0 0-53.76-55.8592c2.048-0.2048 3.8912-1.1776 5.9904-1.1776h-11.8272c2.048 0 3.84 0.9728 5.8368 1.1776a59.136 59.136 0 0 0-53.1456 55.8592l-13.056 284.16a54.272 54.272 0 0 0 54.6304 57.088h26.2656a53.248 53.248 0 0 0 54.2208-57.088l-15.2064-284.16z"  horiz-adv-x="1024" />

    
    <glyph glyph-name="yanjing" unicode="&#58907;" d="M512 549.888c-91.136 0-165.376-74.24-165.376-165.376 0-91.136 74.24-165.376 165.376-165.376 91.136 0 165.376 74.24 165.376 165.376 0 91.136-74.24 165.376-165.376 165.376z m0-269.312c-57.344 0-103.936 46.592-103.936 103.936 0 57.344 46.592 103.936 103.936 103.936 57.344 0 103.936-46.592 103.936-103.936 0-57.344-46.592-103.936-103.936-103.936z m437.76 119.296C876.032 539.648 702.464 680.96 512 680.96S147.968 539.648 74.752 399.872L66.048 384l8.704-15.872C147.968 228.352 321.536 87.04 512 87.04s364.032 141.824 437.76 281.088L957.952 384l-8.192 15.872zM512 152.576c-156.672 0-305.664 116.736-373.248 231.424C206.848 499.2 355.328 615.424 512 615.424S817.664 499.2 885.248 384C817.664 269.312 668.672 152.576 512 152.576z"  horiz-adv-x="1024" />

    
    <glyph glyph-name="xie1" unicode="&#58927;" d="M800 489.6V96H224V672h393.6l96 96H128v-768h768V585.6zM772.16 735.04l52.032 52.032 90.496-90.528-52.032-52.032zM745.6 710.4L403.2 364.79999999999995l-6.4-96 96 6.4L838.4 617.6z"  horiz-adv-x="1024" />

    
    <glyph glyph-name="shuaxin" unicode="&#58888;" d="M517.6 863.6H148v-74h146v-147.6H368V715.6h73.6V789.6h76zM74 716.8H0v-665.6h74v-72.8H148v74H74V715.6H148V789.6H74zM148-21.6h222v-74H148zM730 52.4v73.6H656v-73.6h-73.6v-74h-76v-74H876v74h-146zM654.4 863.6h222v-74h-222zM950 716.8V789.6H876v-74h74v-663.2H876v-74h74v72.8H1024V716.8z"  horiz-adv-x="1024" />

    


  </font>
</defs>
</svg>
